<?xml version="1.0" standalone="no"?><!DOCTYPE svg PUBLIC "-//W3C//DTD SVG 1.1//EN" "http://www.w3.org/Graphics/SVG/1.1/DTD/svg11.dtd"><svg t="1582208443221" class="icon" viewBox="0 0 1097 1024" version="1.1" xmlns="http://www.w3.org/2000/svg" p-id="5323" xmlns:xlink="http://www.w3.org/1999/xlink" width="214.2578125" height="200"><defs><style type="text/css"></style></defs><path d="M822.857143 475.428571h-548.571429a36.571429 36.571429 0 0 1 0-73.142857h469.211429l-104.228572-122.514285A36.571429 36.571429 0 1 1 694.857143 232.228571l155.794286 182.857143A36.571429 36.571429 0 0 1 822.857143 475.428571zM430.08 804.571429a36.571429 36.571429 0 0 1-27.794286-12.8l-155.794285-182.857143A36.571429 36.571429 0 0 1 274.285714 548.571429h548.571429a36.571429 36.571429 0 0 1 0 73.142857H353.645714l104.228572 122.514285a36.571429 36.571429 0 0 1-27.794286 60.342858z" fill="#ffffff" p-id="5324"></path><path d="M877.714286 1024H219.428571a219.428571 219.428571 0 0 1-219.428571-219.428571V219.428571a219.428571 219.428571 0 0 1 219.428571-219.428571h658.285715a219.428571 219.428571 0 0 1 219.428571 219.428571v585.142858a219.428571 219.428571 0 0 1-219.428571 219.428571zM219.428571 73.142857a146.285714 146.285714 0 0 0-146.285714 146.285714v585.142858a146.285714 146.285714 0 0 0 146.285714 146.285714h658.285715a146.285714 146.285714 0 0 0 146.285714-146.285714V219.428571a146.285714 146.285714 0 0 0-146.285714-146.285714z" fill="#ffffff" p-id="5325"></path></svg>